<svg xmlns="http://www.w3.org/2000/svg" width="1313" height="900" viewBox="0 0 1313 900" fill="none">
  <g style="mix-blend-mode:plus-darker" filter="url(#filter0_dd_874_742)">
    <path d="M6.31836 1.61621H656.953H1307.59V458.043C1307.59 481.363 1290.42 501.126 1267.33 504.391L1184.92 516.045L1163.82 521.445C1135.36 528.73 1121.13 532.372 1108.52 539.543C1095.9 546.714 1085.49 557.077 1064.67 577.802L1035.23 607.114L982.811 661.321L940.12 716.613L907.696 762.689L883.378 791.419L855.818 817.439L820.692 845.084L790.024 861.199C782.665 865.065 778.986 866.999 775.173 868.643C771.36 870.287 767.429 871.636 759.567 874.335L734.229 883.03L679.65 890.077H638.58L601.833 883.03L567.248 876.525L525.637 862.431L493.214 845.084L458.84 822.527C447.132 814.844 441.278 811.002 435.98 806.453C430.682 801.905 425.999 796.699 416.633 786.288L395.402 762.689L351.09 700.35L304.616 630.965L261.384 564.29C253.721 557.022 249.889 553.388 245.795 550.19C235.693 542.3 224.271 536.264 212.061 532.365C207.112 530.785 201.951 529.667 191.628 527.431L184.108 525.802L125.745 516.045L54.4028 510.216C27.2356 507.997 6.31836 485.301 6.31836 458.043V1.61621Z" fill="white" shape-rendering="crispEdges"/>
    <path d="M6.31836 1.61621H656.953H1307.59V458.043C1307.59 481.363 1290.42 501.126 1267.33 504.391L1184.92 516.045L1163.82 521.445C1135.36 528.73 1121.13 532.372 1108.52 539.543C1095.9 546.714 1085.49 557.077 1064.67 577.802L1035.23 607.114L982.811 661.321L940.12 716.613L907.696 762.689L883.378 791.419L855.818 817.439L820.692 845.084L790.024 861.199C782.665 865.065 778.986 866.999 775.173 868.643C771.36 870.287 767.429 871.636 759.567 874.335L734.229 883.03L679.65 890.077H638.58L601.833 883.03L567.248 876.525L525.637 862.431L493.214 845.084L458.84 822.527C447.132 814.844 441.278 811.002 435.98 806.453C430.682 801.905 425.999 796.699 416.633 786.288L395.402 762.689L351.09 700.35L304.616 630.965L261.384 564.29C253.721 557.022 249.889 553.388 245.795 550.19C235.693 542.3 224.271 536.264 212.061 532.365C207.112 530.785 201.951 529.667 191.628 527.431L184.108 525.802L125.745 516.045L54.4028 510.216C27.2356 507.997 6.31836 485.301 6.31836 458.043V1.61621Z" stroke="#BED1FA" stroke-opacity="0.15" stroke-width="2.16698" shape-rendering="crispEdges"/>
    <path d="M6.31836 1.61621H656.953H1307.59V458.043C1307.59 481.363 1290.42 501.126 1267.33 504.391L1184.92 516.045L1163.82 521.445C1135.36 528.73 1121.13 532.372 1108.52 539.543C1095.9 546.714 1085.49 557.077 1064.67 577.802L1035.23 607.114L982.811 661.321L940.12 716.613L907.696 762.689L883.378 791.419L855.818 817.439L820.692 845.084L790.024 861.199C782.665 865.065 778.986 866.999 775.173 868.643C771.36 870.287 767.429 871.636 759.567 874.335L734.229 883.03L679.65 890.077H638.58L601.833 883.03L567.248 876.525L525.637 862.431L493.214 845.084L458.84 822.527C447.132 814.844 441.278 811.002 435.98 806.453C430.682 801.905 425.999 796.699 416.633 786.288L395.402 762.689L351.09 700.35L304.616 630.965L261.384 564.29C253.721 557.022 249.889 553.388 245.795 550.19C235.693 542.3 224.271 536.264 212.061 532.365C207.112 530.785 201.951 529.667 191.628 527.431L184.108 525.802L125.745 516.045L54.4028 510.216C27.2356 507.997 6.31836 485.301 6.31836 458.043V1.61621Z" stroke="#BDD6FB" stroke-opacity="0.2" stroke-width="2.16698" shape-rendering="crispEdges"/>
  </g>
  <defs>
    <filter id="filter0_dd_874_742" x="0.90091" y="0.533203" width="1312.1" height="899.295" filterUnits="userSpaceOnUse" color-interpolation-filters="sRGB">
      <feFlood flood-opacity="0" result="BackgroundImageFix"/>
      <feColorMatrix in="SourceAlpha" type="matrix" values="0 0 0 0 0 0 0 0 0 0 0 0 0 0 0 0 0 0 127 0" result="hardAlpha"/>
      <feOffset dy="4.33395"/>
      <feGaussianBlur stdDeviation="2.16698"/>
      <feComposite in2="hardAlpha" operator="out"/>
      <feColorMatrix type="matrix" values="0 0 0 0 0 0 0 0 0 0 0 0 0 0 0 0 0 0 0.25 0"/>
      <feBlend mode="normal" in2="BackgroundImageFix" result="effect1_dropShadow_874_742"/>
      <feColorMatrix in="SourceAlpha" type="matrix" values="0 0 0 0 0 0 0 0 0 0 0 0 0 0 0 0 0 0 127 0" result="hardAlpha"/>
      <feOffset dy="4.33395"/>
      <feGaussianBlur stdDeviation="2.16698"/>
      <feComposite in2="hardAlpha" operator="out"/>
      <feColorMatrix type="matrix" values="0 0 0 0 0 0 0 0 0 0 0 0 0 0 0 0 0 0 0.25 0"/>
      <feBlend mode="normal" in2="effect1_dropShadow_874_742" result="effect2_dropShadow_874_742"/>
      <feBlend mode="normal" in="SourceGraphic" in2="effect2_dropShadow_874_742" result="shape"/>
    </filter>
  </defs>
</svg>