<svg width="46" height="209" viewBox="0 0 46 209" fill="none" xmlns="http://www.w3.org/2000/svg">
<g id="Group 60">
<path id="Ellipse 46" d="M23.7009 142.191C23.7009 143.409 22.7586 144.358 21.6422 144.358C20.5258 144.358 19.5835 143.409 19.5835 142.191C19.5835 140.973 20.5258 140.024 21.6422 140.024C22.7586 140.024 23.7009 140.973 23.7009 142.191Z" stroke="#000428" stroke-width="1.08349"/>
<line id="Line 1" x1="0.318359" y1="5.67212" x2="13.8407" y2="5.67212" stroke="#000428" stroke-width="1.08349"/>
<path id="Line 2" d="M13.8408 5.12988L13.8408 48.4694" stroke="#000428" stroke-width="1.08349"/>
<line id="Line 3" y1="-0.541744" x2="14.0736" y2="-0.541744" transform="matrix(0.88692 0.461922 -0.432743 0.901517 13.8408 48.4697)" stroke="#000428" stroke-width="1.08349"/>
<line id="Line 4" x1="0.318359" y1="64.1799" x2="40.8855" y2="64.1799" stroke="#000428" stroke-width="1.08349"/>
<path id="Ellipse 43" d="M30.9822 55.5124C30.9822 56.7303 30.0398 57.6794 28.9235 57.6794C27.8071 57.6794 26.8647 56.7303 26.8647 55.5124C26.8647 54.2946 27.8071 53.3455 28.9235 53.3455C30.0398 53.3455 30.9822 54.2946 30.9822 55.5124Z" stroke="#000428" stroke-width="1.08349"/>
<path id="Ellipse 51" d="M23.7009 41.4265C23.7009 42.6443 22.7586 43.5935 21.6422 43.5935C20.5258 43.5935 19.5835 42.6443 19.5835 41.4265C19.5835 40.2087 20.5258 39.2595 21.6422 39.2595C22.7586 39.2595 23.7009 40.2087 23.7009 41.4265Z" stroke="#000428" stroke-width="1.08349"/>
<path id="Ellipse 44" d="M45.0247 64.1804C45.0247 65.3982 44.0823 66.3474 42.9659 66.3474C41.8496 66.3474 40.9072 65.3982 40.9072 64.1804C40.9072 62.9626 41.8496 62.0134 42.9659 62.0134C44.0823 62.0134 45.0247 62.9626 45.0247 64.1804Z" stroke="#000428" stroke-width="1.08349"/>
<path id="Ellipse 52" d="M45.0247 64.1804C45.0247 65.3982 44.0823 66.3474 42.9659 66.3474C41.8496 66.3474 40.9072 65.3982 40.9072 64.1804C40.9072 62.9626 41.8496 62.0134 42.9659 62.0134C44.0823 62.0134 45.0247 62.9626 45.0247 64.1804Z" stroke="#000428" stroke-width="1.08349"/>
<path id="Ellipse 47" d="M16.4194 84.7663C16.4194 85.9842 15.4771 86.9333 14.3607 86.9333C13.2443 86.9333 12.302 85.9842 12.302 84.7663C12.302 83.5485 13.2443 82.5994 14.3607 82.5994C15.4771 82.5994 16.4194 83.5485 16.4194 84.7663Z" stroke="#000428" stroke-width="1.08349"/>
<path id="Ellipse 48" d="M26.8213 91.2673C26.8213 92.4851 25.879 93.4343 24.7626 93.4343C23.6462 93.4343 22.7039 92.4851 22.7039 91.2673C22.7039 90.0495 23.6462 89.1003 24.7626 89.1003C25.879 89.1003 26.8213 90.0495 26.8213 91.2673Z" stroke="#000428" stroke-width="1.08349"/>
<path id="Ellipse 49" d="M8.09814 108.603C8.09814 109.821 7.15581 110.77 6.03942 110.77C4.92304 110.77 3.98071 109.821 3.98071 108.603C3.98071 107.385 4.92304 106.436 6.03942 106.436C7.15581 106.436 8.09814 107.385 8.09814 108.603Z" stroke="#000428" stroke-width="1.08349"/>
<path id="Ellipse 50" d="M28.9018 133.523C28.9018 134.741 27.9595 135.69 26.8431 135.69C25.7268 135.69 24.7844 134.741 24.7844 133.523C24.7844 132.305 25.7268 131.356 26.8431 131.356C27.9595 131.356 28.9018 132.305 28.9018 133.523Z" stroke="#000428" stroke-width="1.08349"/>
<path id="Line 5" d="M14.8809 83.1406V71.2223" stroke="#000428" stroke-width="1.08349"/>
<line id="Line 6" x1="3.43896" y1="69.5979" x2="18.0015" y2="69.5979" stroke="white" stroke-width="1.08349"/>
<path id="Line 7" d="M22.25 5.12988L22.1619 39.8014" stroke="#000428" stroke-width="1.08349"/>
<line id="Line 8" x1="14.8809" y1="71.7644" x2="3.43884" y2="71.7644" stroke="#000428" stroke-width="1.08349"/>
<line id="Line 9" x1="3.98071" y1="72.3066" x2="3.98071" y2="103.728" stroke="#000428" stroke-width="1.08349"/>
<line id="Line 10" x1="3.43896" y1="103.186" x2="25.2828" y2="103.186" stroke="#000428" stroke-width="1.08349"/>
<path id="Line 11" d="M24.7627 103.728V93.4344" stroke="#000428" stroke-width="1.08349"/>
<line id="Line 12" x1="6.06103" y1="110.229" x2="6.06103" y2="122.147" stroke="#000428" stroke-width="1.08349"/>
<line id="Line 13" x1="5.51929" y1="121.605" x2="14.8809" y2="121.605" stroke="#000428" stroke-width="1.08349"/>
<line id="Line 14" x1="15.4226" y1="121.063" x2="15.4226" y2="134.065" stroke="#000428" stroke-width="1.08349"/>
<line id="Line 15" x1="14.8809" y1="133.524" x2="25.2827" y2="133.524" stroke="#000428" stroke-width="1.08349"/>
<path id="Ellipse 53" d="M24.7412 3.50462C24.7412 4.72245 23.7989 5.6716 22.6825 5.6716C21.5661 5.6716 20.6238 4.72245 20.6238 3.50462C20.6238 2.28679 21.5661 1.33764 22.6825 1.33764C23.7989 1.33764 24.7412 2.28679 24.7412 3.50462Z" stroke="#000428" stroke-width="1.08349"/>
<line id="Line 16" x1="19.0417" y1="142.191" x2="5.51937" y2="142.191" stroke="#000428" stroke-width="1.08349"/>
<line id="Line 17" x1="6.06103" y1="141.649" x2="6.06103" y2="164.403" stroke="#000428" stroke-width="1.08349"/>
<line id="Line 18" x1="5.51929" y1="163.861" x2="30.4837" y2="163.861" stroke="#000428" stroke-width="1.08349"/>
<line id="Line 19" x1="29.9419" y1="164.402" x2="29.9419" y2="152.484" stroke="#000428" stroke-width="1.08349"/>
<path id="Ellipse 54" d="M32.0225 150.859C32.0225 152.077 31.0801 153.026 29.9637 153.026C28.8474 153.026 27.905 152.077 27.905 150.859C27.905 149.641 28.8474 148.692 29.9637 148.692C31.0801 148.692 32.0225 149.641 32.0225 150.859Z" stroke="#000428" stroke-width="1.08349"/>
<line id="Line 20" x1="0.318359" y1="170.362" x2="8.63983" y2="170.362" stroke="#000428" stroke-width="1.08349"/>
<line id="Line 25" x1="0.318359" y1="176.863" x2="6.55946" y2="176.863" stroke="#000428" stroke-width="1.08349"/>
<path id="Line 21" d="M8.11963 170.362L12.2804 175.78" stroke="#000428" stroke-width="1.08349"/>
<path id="Line 26" d="M5.51929 176.321L9.68002 181.739" stroke="#000428" stroke-width="1.08349"/>
<line id="Line 22" x1="11.7603" y1="175.78" x2="19.0415" y2="175.78" stroke="#000428" stroke-width="1.08349"/>
<path id="Line 27" d="M8.63989 181.738H10.4974H12.1691H13.8408" stroke="#000428" stroke-width="1.08349"/>
<line id="Line 23" y1="-0.541744" x2="6.25192" y2="-0.541744" transform="matrix(0.499135 0.866524 -0.848006 0.529986 18.0015 176.321)" stroke="#000428" stroke-width="1.08349"/>
<line id="Line 28" y1="-0.541744" x2="6.25192" y2="-0.541744" transform="matrix(0.499135 0.866524 -0.848006 0.529986 12.8005 181.738)" stroke="#000428" stroke-width="1.08349"/>
<path id="Line 24" d="M21.6422 181.196V197.99M24.2427 200.157C24.2427 201.653 23.0784 202.866 21.6422 202.866C20.206 202.866 19.0418 201.653 19.0418 200.157C19.0418 198.661 20.206 197.449 21.6422 197.449C23.0784 197.449 24.2427 198.661 24.2427 200.157Z" stroke="#000428" stroke-width="1.08349"/>
<path id="Line 29" d="M16.4413 186.072V202.866M19.0417 205.033C19.0417 206.529 17.8775 207.742 16.4413 207.742C15.0051 207.742 13.8408 206.529 13.8408 205.033C13.8408 203.537 15.0051 202.325 16.4413 202.325C17.8775 202.325 19.0417 203.537 19.0417 205.033Z" stroke="#000428" stroke-width="1.08349"/>
</g>
</svg>
