<svg width="47" height="209" viewBox="0 0 47 209" fill="none" xmlns="http://www.w3.org/2000/svg">
<g id="Group 61">
<path id="Ellipse 46" d="M22.6851 142.191C22.6851 143.409 23.6274 144.358 24.7438 144.358C25.8602 144.358 26.8025 143.409 26.8025 142.191C26.8025 140.973 25.8602 140.024 24.7438 140.024C23.6274 140.024 22.6851 140.973 22.6851 142.191Z" stroke="#000428" stroke-width="1.08349"/>
<line id="Line 1" y1="-0.541744" x2="13.5224" y2="-0.541744" transform="matrix(-1 0 0 1 46.0674 6.21387)" stroke="#000428" stroke-width="1.08349"/>
<path id="Line 2" d="M32.5454 5.12988V48.4694" stroke="#000428" stroke-width="1.08349"/>
<line id="Line 3" y1="-0.541744" x2="14.0736" y2="-0.541744" transform="matrix(-0.88692 0.461922 0.432743 0.901517 32.5454 48.4697)" stroke="#000428" stroke-width="1.08349"/>
<line id="Line 4" y1="-0.541744" x2="40.5671" y2="-0.541744" transform="matrix(-1 0 0 1 46.0674 64.7217)" stroke="#000428" stroke-width="1.08349"/>
<path id="Ellipse 43" d="M15.4038 55.5124C15.4038 56.7303 16.3461 57.6794 17.4625 57.6794C18.5789 57.6794 19.5212 56.7303 19.5212 55.5124C19.5212 54.2946 18.5789 53.3455 17.4625 53.3455C16.3461 53.3455 15.4038 54.2946 15.4038 55.5124Z" stroke="#000428" stroke-width="1.08349"/>
<path id="Ellipse 51" d="M22.6851 41.4265C22.6851 42.6443 23.6274 43.5935 24.7438 43.5935C25.8602 43.5935 26.8025 42.6443 26.8025 41.4265C26.8025 40.2087 25.8602 39.2595 24.7438 39.2595C23.6274 39.2595 22.6851 40.2087 22.6851 41.4265Z" stroke="#000428" stroke-width="1.08349"/>
<path id="Ellipse 44" d="M1.36134 64.1804C1.36134 65.3982 2.30367 66.3474 3.42005 66.3474C4.53643 66.3474 5.47876 65.3982 5.47876 64.1804C5.47876 62.9626 4.53643 62.0134 3.42005 62.0134C2.30367 62.0134 1.36134 62.9626 1.36134 64.1804Z" stroke="#000428" stroke-width="1.08349"/>
<path id="Ellipse 52" d="M1.36134 64.1804C1.36134 65.3982 2.30367 66.3474 3.42005 66.3474C4.53643 66.3474 5.47876 65.3982 5.47876 64.1804C5.47876 62.9626 4.53643 62.0134 3.42005 62.0134C2.30367 62.0134 1.36134 62.9626 1.36134 64.1804Z" stroke="#000428" stroke-width="1.08349"/>
<path id="Ellipse 47" d="M29.9663 84.7663C29.9663 85.9842 30.9086 86.9333 32.025 86.9333C33.1414 86.9333 34.0837 85.9842 34.0837 84.7663C34.0837 83.5485 33.1414 82.5994 32.025 82.5994C30.9086 82.5994 29.9663 83.5485 29.9663 84.7663Z" stroke="#000428" stroke-width="1.08349"/>
<path id="Ellipse 48" d="M19.5645 91.2673C19.5645 92.4851 20.5068 93.4343 21.6232 93.4343C22.7396 93.4343 23.6819 92.4851 23.6819 91.2673C23.6819 90.0495 22.7396 89.1003 21.6232 89.1003C20.5068 89.1003 19.5645 90.0495 19.5645 91.2673Z" stroke="#000428" stroke-width="1.08349"/>
<path id="Ellipse 49" d="M38.2881 108.603C38.2881 109.821 39.2304 110.77 40.3468 110.77C41.4632 110.77 42.4055 109.821 42.4055 108.603C42.4055 107.385 41.4632 106.436 40.3468 106.436C39.2304 106.436 38.2881 107.385 38.2881 108.603Z" stroke="#000428" stroke-width="1.08349"/>
<path id="Ellipse 50" d="M17.4844 133.523C17.4844 134.741 18.4267 135.69 19.5431 135.69C20.6595 135.69 21.6018 134.741 21.6018 133.523C21.6018 132.305 20.6595 131.356 19.5431 131.356C18.4267 131.356 17.4844 132.305 17.4844 133.523Z" stroke="#000428" stroke-width="1.08349"/>
<path id="Line 5" d="M31.5049 83.1406V71.2223" stroke="#000428" stroke-width="1.08349"/>
<line id="Line 6" y1="-0.541744" x2="14.5626" y2="-0.541744" transform="matrix(-1 0 0 1 42.9473 70.1396)" stroke="white" stroke-width="1.08349"/>
<path id="Line 7" d="M24.1357 5.12988L24.2238 39.8014" stroke="#000428" stroke-width="1.08349"/>
<line id="Line 8" y1="-0.541744" x2="11.442" y2="-0.541744" transform="matrix(1 0 0 -1 31.5049 71.2227)" stroke="#000428" stroke-width="1.08349"/>
<line id="Line 9" y1="-0.541744" x2="31.4212" y2="-0.541744" transform="matrix(0 1 1 0 42.9473 72.3066)" stroke="#000428" stroke-width="1.08349"/>
<line id="Line 10" y1="-0.541744" x2="21.8438" y2="-0.541744" transform="matrix(-1 0 0 1 42.9473 103.728)" stroke="#000428" stroke-width="1.08349"/>
<path id="Line 11" d="M21.6235 103.728V93.4344" stroke="#000428" stroke-width="1.08349"/>
<line id="Line 12" y1="-0.541744" x2="11.9184" y2="-0.541744" transform="matrix(0 1 1 0 40.8667 110.229)" stroke="#000428" stroke-width="1.08349"/>
<line id="Line 13" y1="-0.541744" x2="9.36165" y2="-0.541744" transform="matrix(-1 0 0 1 40.8667 122.146)" stroke="#000428" stroke-width="1.08349"/>
<line id="Line 14" y1="-0.541744" x2="13.0019" y2="-0.541744" transform="matrix(0 1 1 0 31.5049 121.063)" stroke="#000428" stroke-width="1.08349"/>
<line id="Line 15" y1="-0.541744" x2="10.4018" y2="-0.541744" transform="matrix(-1 0 0 1 31.5049 134.065)" stroke="#000428" stroke-width="1.08349"/>
<path id="Ellipse 53" d="M21.645 3.50462C21.645 4.72245 22.5874 5.6716 23.7037 5.6716C24.8201 5.6716 25.7625 4.72245 25.7625 3.50462C25.7625 2.28679 24.8201 1.33764 23.7037 1.33764C22.5874 1.33764 21.645 2.28679 21.645 3.50462Z" stroke="#000428" stroke-width="1.08349"/>
<line id="Line 16" y1="-0.541744" x2="13.5224" y2="-0.541744" transform="matrix(1 -7.68925e-10 -7.08688e-10 -1 27.3442 141.649)" stroke="#000428" stroke-width="1.08349"/>
<line id="Line 17" y1="-0.541744" x2="22.7533" y2="-0.541744" transform="matrix(0 1 1 0 40.8667 141.649)" stroke="#000428" stroke-width="1.08349"/>
<line id="Line 18" y1="-0.541744" x2="24.9644" y2="-0.541744" transform="matrix(-1 0 0 1 40.8667 164.402)" stroke="#000428" stroke-width="1.08349"/>
<line id="Line 19" y1="-0.541744" x2="11.9184" y2="-0.541744" transform="matrix(0 -1 -1 0 15.9023 164.402)" stroke="#000428" stroke-width="1.08349"/>
<path id="Ellipse 54" d="M14.3638 150.859C14.3638 152.077 15.3061 153.026 16.4225 153.026C17.5389 153.026 18.4812 152.077 18.4812 150.859C18.4812 149.641 17.5389 148.692 16.4225 148.692C15.3061 148.692 14.3638 149.641 14.3638 150.859Z" stroke="#000428" stroke-width="1.08349"/>
<line id="Line 20" y1="-0.541744" x2="8.32147" y2="-0.541744" transform="matrix(-1 0 0 1 46.0674 170.903)" stroke="#000428" stroke-width="1.08349"/>
<line id="Line 25" y1="-0.541744" x2="6.2411" y2="-0.541744" transform="matrix(-1 0 0 1 46.0674 177.404)" stroke="#000428" stroke-width="1.08349"/>
<path id="Line 21" d="M38.2661 170.362L34.1054 175.78" stroke="#000428" stroke-width="1.08349"/>
<path id="Line 26" d="M40.8667 176.321L36.706 181.739" stroke="#000428" stroke-width="1.08349"/>
<line id="Line 22" y1="-0.541744" x2="7.28128" y2="-0.541744" transform="matrix(-1 0 0 1 34.6255 176.321)" stroke="#000428" stroke-width="1.08349"/>
<path id="Line 27" d="M37.7461 181.738H35.8886H34.2169H32.5452" stroke="#000428" stroke-width="1.08349"/>
<line id="Line 23" y1="-0.541744" x2="6.25192" y2="-0.541744" transform="matrix(-0.499135 0.866524 0.848006 0.529986 28.3848 176.321)" stroke="#000428" stroke-width="1.08349"/>
<line id="Line 28" y1="-0.541744" x2="6.25192" y2="-0.541744" transform="matrix(-0.499135 0.866524 0.848006 0.529986 33.5854 181.738)" stroke="#000428" stroke-width="1.08349"/>
<path id="Line 24" d="M24.744 181.196V197.99M22.1436 200.157C22.1436 201.653 23.3078 202.866 24.744 202.866C26.1802 202.866 27.3445 201.653 27.3445 200.157C27.3445 198.661 26.1802 197.449 24.744 197.449C23.3078 197.449 22.1436 198.661 22.1436 200.157Z" stroke="#000428" stroke-width="1.08349"/>
<path id="Line 29" d="M29.9447 186.072V202.866M27.3442 205.033C27.3442 206.529 28.5085 207.742 29.9447 207.742C31.3809 207.742 32.5452 206.529 32.5452 205.033C32.5452 203.537 31.3809 202.325 29.9447 202.325C28.5085 202.325 27.3442 203.537 27.3442 205.033Z" stroke="#000428" stroke-width="1.08349"/>
</g>
</svg>
