<svg width="1440" height="135" viewBox="0 0 1440 135" fill="none" xmlns="http://www.w3.org/2000/svg">
  <path 
    d="M0 41.002L97.9977 16.1793C157.724 1.05068 220.551 3.5066 278.914 23.2514L308.771 33.3522C361.523 51.1987 418.909 49.656 470.626 29.0012C523.098 8.04492 581.378 6.77247 634.715 25.4186L653.144 31.8612C707.048 50.7058 765.813 50.3169 819.463 30.7605C866.386 13.6563 917.388 11.1589 965.758 23.5968L993.746 30.7938C1052.44 45.8868 1114.39 42.2361 1170.9 20.3535C1221.3 0.840233 1276.14 -4.22149 1329.26 5.73787L1440 26.502V152.502H0V41.002Z" 
    fill="url(#paint0_linear_404_1096)"
    transform="scale(-1, 1) translate(-1440, 0)"
  />
  <defs>
    <linearGradient id="paint0_linear_404_1096" x1="0" y1="71.502" x2="1440" y2="71.502" gradientUnits="userSpaceOnUse">
      <stop stop-color="#0052D4"/>
      <stop offset="0.5" stop-color="#4364F7"/>
      <stop offset="1" stop-color="#6FB1FC"/>
    </linearGradient>
  </defs>
</svg>
